<mxfile>
    <diagram id="dBBwZZ7qTZV8Y8YcayvF" name="Page-1">
        <mxGraphModel dx="664" dy="562" grid="1" gridSize="10" guides="1" tooltips="1" connect="1" arrows="1" fold="1" page="1" pageScale="1" pageWidth="1169" pageHeight="827" math="0" shadow="0">
            <root>
                <mxCell id="0"/>
                <mxCell id="1" parent="0"/>
                <mxCell id="2" value="Coordinator" style="shape=umlLifeline;participant=umlActor;perimeter=lifelinePerimeter;whiteSpace=wrap;html=1;container=1;collapsible=0;recursiveResize=0;verticalAlign=top;spacingTop=36;outlineConnect=0;" parent="1" vertex="1">
                    <mxGeometry x="69" y="40" width="20" height="260" as="geometry"/>
                </mxCell>
                <mxCell id="9" value="" style="html=1;points=[];perimeter=orthogonalPerimeter;" parent="2" vertex="1">
                    <mxGeometry x="5" y="90" width="10" height="40" as="geometry"/>
                </mxCell>
                <mxCell id="21" value="" style="html=1;points=[];perimeter=orthogonalPerimeter;" parent="2" vertex="1">
                    <mxGeometry x="5" y="220" width="10" height="20" as="geometry"/>
                </mxCell>
                <mxCell id="4" value="&lt;u&gt;:DataQuery&lt;/u&gt;" style="shape=umlLifeline;perimeter=lifelinePerimeter;whiteSpace=wrap;html=1;container=1;collapsible=0;recursiveResize=0;outlineConnect=0;" parent="1" vertex="1">
                    <mxGeometry x="139" y="40" width="100" height="260" as="geometry"/>
                </mxCell>
                <mxCell id="11" value="" style="html=1;points=[];perimeter=orthogonalPerimeter;" parent="4" vertex="1">
                    <mxGeometry x="45" y="90" width="10" height="40" as="geometry"/>
                </mxCell>
                <mxCell id="19" value="" style="html=1;points=[];perimeter=orthogonalPerimeter;" parent="4" vertex="1">
                    <mxGeometry x="45" y="200" width="10" height="40" as="geometry"/>
                </mxCell>
                <mxCell id="5" value="&lt;u&gt;:CoursesCtrlr&lt;/u&gt;" style="shape=umlLifeline;perimeter=lifelinePerimeter;whiteSpace=wrap;html=1;container=1;collapsible=0;recursiveResize=0;outlineConnect=0;" parent="1" vertex="1">
                    <mxGeometry x="289" y="40" width="100" height="260" as="geometry"/>
                </mxCell>
                <mxCell id="13" value="" style="html=1;points=[];perimeter=orthogonalPerimeter;" parent="5" vertex="1">
                    <mxGeometry x="45" y="110" width="10" height="90" as="geometry"/>
                </mxCell>
                <mxCell id="6" value="&lt;u&gt;:Database&lt;/u&gt;" style="shape=umlLifeline;perimeter=lifelinePerimeter;whiteSpace=wrap;html=1;container=1;collapsible=0;recursiveResize=0;outlineConnect=0;" parent="1" vertex="1">
                    <mxGeometry x="439" y="40" width="100" height="260" as="geometry"/>
                </mxCell>
                <mxCell id="15" value="" style="html=1;points=[];perimeter=orthogonalPerimeter;" parent="6" vertex="1">
                    <mxGeometry x="45" y="130" width="10" height="50" as="geometry"/>
                </mxCell>
                <mxCell id="12" value="1:AccessAnalytics()" style="html=1;verticalAlign=bottom;endArrow=block;" parent="1" edge="1">
                    <mxGeometry width="80" relative="1" as="geometry">
                        <mxPoint x="79" y="130" as="sourcePoint"/>
                        <mxPoint x="188.5" y="130" as="targetPoint"/>
                    </mxGeometry>
                </mxCell>
                <mxCell id="14" value="2:RequestData()" style="html=1;verticalAlign=bottom;endArrow=block;entryX=0.5;entryY=0;entryDx=0;entryDy=0;entryPerimeter=0;" parent="1" target="13" edge="1">
                    <mxGeometry width="80" relative="1" as="geometry">
                        <mxPoint x="194" y="150" as="sourcePoint"/>
                        <mxPoint x="329" y="150" as="targetPoint"/>
                    </mxGeometry>
                </mxCell>
                <mxCell id="16" value="3:ConsultData()" style="html=1;verticalAlign=bottom;endArrow=block;" parent="1" target="6" edge="1">
                    <mxGeometry width="80" relative="1" as="geometry">
                        <mxPoint x="344" y="170" as="sourcePoint"/>
                        <mxPoint x="424" y="170" as="targetPoint"/>
                    </mxGeometry>
                </mxCell>
                <mxCell id="17" value="4:SendConsult()" style="html=1;verticalAlign=bottom;endArrow=open;dashed=1;endSize=8;" parent="1" target="13" edge="1">
                    <mxGeometry relative="1" as="geometry">
                        <mxPoint x="489" y="220" as="sourcePoint"/>
                        <mxPoint x="409" y="220" as="targetPoint"/>
                    </mxGeometry>
                </mxCell>
                <mxCell id="18" value="5:SendData()" style="html=1;verticalAlign=bottom;endArrow=open;dashed=1;endSize=8;entryX=1;entryY=0.025;entryDx=0;entryDy=0;entryPerimeter=0;" parent="1" target="19" edge="1">
                    <mxGeometry relative="1" as="geometry">
                        <mxPoint x="339" y="240" as="sourcePoint"/>
                        <mxPoint x="259" y="240" as="targetPoint"/>
                    </mxGeometry>
                </mxCell>
                <mxCell id="22" value="6:ShowGraphs()" style="html=1;verticalAlign=bottom;endArrow=open;dashed=1;endSize=8;entryX=0.9;entryY=0.1;entryDx=0;entryDy=0;entryPerimeter=0;" parent="1" target="21" edge="1">
                    <mxGeometry relative="1" as="geometry">
                        <mxPoint x="184" y="260" as="sourcePoint"/>
                        <mxPoint x="104" y="260" as="targetPoint"/>
                    </mxGeometry>
                </mxCell>
                <mxCell id="23" value="&lt;b&gt;&lt;u&gt;Data Analytics&lt;/u&gt;&lt;/b&gt;" style="text;html=1;align=center;verticalAlign=middle;resizable=0;points=[];autosize=1;" parent="1" vertex="1">
                    <mxGeometry x="235" y="10" width="100" height="20" as="geometry"/>
                </mxCell>
                <mxCell id="161" value="Employees" style="shape=umlLifeline;participant=umlActor;perimeter=lifelinePerimeter;whiteSpace=wrap;html=1;container=1;collapsible=0;recursiveResize=0;verticalAlign=top;spacingTop=36;outlineConnect=0;" parent="1" vertex="1">
                    <mxGeometry x="630" y="50" width="20" height="260" as="geometry"/>
                </mxCell>
                <mxCell id="162" value="" style="html=1;points=[];perimeter=orthogonalPerimeter;" parent="161" vertex="1">
                    <mxGeometry x="5" y="90" width="10" height="40" as="geometry"/>
                </mxCell>
                <mxCell id="163" value="" style="html=1;points=[];perimeter=orthogonalPerimeter;" parent="161" vertex="1">
                    <mxGeometry x="5" y="220" width="10" height="20" as="geometry"/>
                </mxCell>
                <mxCell id="164" value="&lt;u&gt;:UserProgress&lt;/u&gt;" style="shape=umlLifeline;perimeter=lifelinePerimeter;whiteSpace=wrap;html=1;container=1;collapsible=0;recursiveResize=0;outlineConnect=0;" parent="1" vertex="1">
                    <mxGeometry x="700" y="50" width="100" height="260" as="geometry"/>
                </mxCell>
                <mxCell id="165" value="" style="html=1;points=[];perimeter=orthogonalPerimeter;" parent="164" vertex="1">
                    <mxGeometry x="45" y="90" width="10" height="40" as="geometry"/>
                </mxCell>
                <mxCell id="166" value="" style="html=1;points=[];perimeter=orthogonalPerimeter;" parent="164" vertex="1">
                    <mxGeometry x="45" y="200" width="10" height="40" as="geometry"/>
                </mxCell>
                <mxCell id="167" value="&lt;u&gt;:Progress&lt;/u&gt;" style="shape=umlLifeline;perimeter=lifelinePerimeter;whiteSpace=wrap;html=1;container=1;collapsible=0;recursiveResize=0;outlineConnect=0;" parent="1" vertex="1">
                    <mxGeometry x="850" y="50" width="100" height="260" as="geometry"/>
                </mxCell>
                <mxCell id="168" value="" style="html=1;points=[];perimeter=orthogonalPerimeter;" parent="167" vertex="1">
                    <mxGeometry x="45" y="110" width="10" height="90" as="geometry"/>
                </mxCell>
                <mxCell id="169" value="&lt;u&gt;:Database&lt;/u&gt;" style="shape=umlLifeline;perimeter=lifelinePerimeter;whiteSpace=wrap;html=1;container=1;collapsible=0;recursiveResize=0;outlineConnect=0;" parent="1" vertex="1">
                    <mxGeometry x="1000" y="50" width="100" height="260" as="geometry"/>
                </mxCell>
                <mxCell id="170" value="" style="html=1;points=[];perimeter=orthogonalPerimeter;" parent="169" vertex="1">
                    <mxGeometry x="45" y="130" width="10" height="50" as="geometry"/>
                </mxCell>
                <mxCell id="171" value="1:AccessProfile()" style="html=1;verticalAlign=bottom;endArrow=block;" parent="1" edge="1">
                    <mxGeometry width="80" relative="1" as="geometry">
                        <mxPoint x="640" y="140" as="sourcePoint"/>
                        <mxPoint x="749.5" y="140" as="targetPoint"/>
                    </mxGeometry>
                </mxCell>
                <mxCell id="172" value="2:RequestProgress()" style="html=1;verticalAlign=bottom;endArrow=block;entryX=0.5;entryY=0;entryDx=0;entryDy=0;entryPerimeter=0;" parent="1" target="168" edge="1">
                    <mxGeometry width="80" relative="1" as="geometry">
                        <mxPoint x="755" y="160" as="sourcePoint"/>
                        <mxPoint x="890" y="160" as="targetPoint"/>
                    </mxGeometry>
                </mxCell>
                <mxCell id="173" value="3:ConsultData()" style="html=1;verticalAlign=bottom;endArrow=block;" parent="1" target="169" edge="1">
                    <mxGeometry width="80" relative="1" as="geometry">
                        <mxPoint x="905" y="180" as="sourcePoint"/>
                        <mxPoint x="985" y="180" as="targetPoint"/>
                    </mxGeometry>
                </mxCell>
                <mxCell id="174" value="4:SendConsult()" style="html=1;verticalAlign=bottom;endArrow=open;dashed=1;endSize=8;" parent="1" target="168" edge="1">
                    <mxGeometry relative="1" as="geometry">
                        <mxPoint x="1050" y="230" as="sourcePoint"/>
                        <mxPoint x="970" y="230" as="targetPoint"/>
                    </mxGeometry>
                </mxCell>
                <mxCell id="175" value="5:SendData()" style="html=1;verticalAlign=bottom;endArrow=open;dashed=1;endSize=8;entryX=1;entryY=0.025;entryDx=0;entryDy=0;entryPerimeter=0;" parent="1" target="166" edge="1">
                    <mxGeometry relative="1" as="geometry">
                        <mxPoint x="900" y="250" as="sourcePoint"/>
                        <mxPoint x="820" y="250" as="targetPoint"/>
                    </mxGeometry>
                </mxCell>
                <mxCell id="176" value="6:ShowProgress()" style="html=1;verticalAlign=bottom;endArrow=open;dashed=1;endSize=8;entryX=0.9;entryY=0.1;entryDx=0;entryDy=0;entryPerimeter=0;" parent="1" target="163" edge="1">
                    <mxGeometry relative="1" as="geometry">
                        <mxPoint x="745" y="270" as="sourcePoint"/>
                        <mxPoint x="665" y="270" as="targetPoint"/>
                    </mxGeometry>
                </mxCell>
                <mxCell id="177" value="&lt;b&gt;&lt;u&gt;User Progress&lt;/u&gt;&lt;/b&gt;" style="text;html=1;align=center;verticalAlign=middle;resizable=0;points=[];autosize=1;" parent="1" vertex="1">
                    <mxGeometry x="796" y="20" width="100" height="20" as="geometry"/>
                </mxCell>
            </root>
        </mxGraphModel>
    </diagram>
</mxfile>